<svg xmlns="http://www.w3.org/2000/svg" xmlns:xlink="http://www.w3.org/1999/xlink" width="28" height="28" viewBox="0 0 28 28" fill="none">
<rect x="0" y="0" width="0" height="0" fill="rgba(249, 249, 249, 1)" />
<g  clip-path="url(#clip-path-0_1)">
<path     fill="#FFFFFF"  d="M0 28L28 28L28 0L0 0L0 28Z">
</path>
<path d="M13.125 8.875L7 11.6875L14.875 14.5L21 11.6875L13.125 8.875Z" stroke="rgba(0, 0, 0, 1)" stroke-width="0.1"      fill="#CCCCCC" >
</path>
<path d="M13.9306 7.00011C13.4251 7.00264 12.9425 7.04911 12.5178 7.13012C11.2667 7.36838 11.0396 7.86709 11.0396 8.78679L11.0396 10.0015L13.996 10.0015L13.996 10.4063L11.0396 10.4063L9.93004 10.4063C9.07081 10.4063 8.31846 10.9631 8.08313 12.0222C7.81168 13.2361 7.79964 13.9937 8.08313 15.2613C8.29328 16.2048 8.79516 16.8771 9.65438 16.8771L10.6709 16.8771L10.6709 15.421C10.6709 14.369 11.5152 13.4411 12.5178 13.4411L15.4708 13.4411C16.2928 13.4411 16.949 12.7115 16.949 11.8216L16.949 8.78679C16.949 7.92309 16.2731 7.27427 15.4708 7.13012C14.9629 7.03898 14.436 6.99758 13.9306 7.00011ZM12.3317 7.97703C12.6371 7.97703 12.8865 8.25026 12.8865 8.58621C12.8865 8.92098 12.6371 9.19168 12.3317 9.19168C12.0253 9.19168 11.777 8.92098 11.777 8.58621C11.777 8.25026 12.0253 7.97703 12.3317 7.97703Z"   fill="url(#linear_fill_1_3)" >
</path>
<path d="M17.2812 10.2812L17.2812 11.681C17.2812 12.7662 16.4093 13.6796 15.415 13.6796L12.4312 13.6796C11.6138 13.6796 10.9375 14.4177 10.9375 15.2814L10.9375 18.2829C10.9375 19.1371 11.6415 19.6396 12.4312 19.8847C13.3768 20.178 14.2836 20.2311 15.415 19.8847C16.1671 19.6549 16.9087 19.1925 16.9087 18.2829L16.9087 17.0815L13.9248 17.0815L13.9248 16.6811L16.9087 16.6811L18.4023 16.6811C19.2706 16.6811 19.5941 16.0421 19.8961 15.083C20.2079 14.0956 20.1946 13.146 19.8961 11.8794C19.6815 10.9674 19.2717 10.2812 18.4023 10.2812L17.2812 10.2812ZM15.603 17.8824C15.9127 17.8824 16.1636 18.1502 16.1636 18.4812C16.1636 18.8136 15.9127 19.0838 15.603 19.0838C15.2945 19.0838 15.0425 18.8136 15.0425 18.4812C15.0425 18.1502 15.2945 17.8824 15.603 17.8824Z"   fill="url(#linear_fill_1_4)" >
</path>
<g filter="url(#filter_0_10)">
<path     fill="#4BCC7F"  d="M7 11.6875L14.88 14.4975L21 11.6875L21 18.2475C21 18.2475 17.33 20.4975 14.88 21.9975C11.73 20.4975 7 18.2475 7 18.2475L7 11.6875Z">
</path>
<path    stroke="rgba(0, 0, 0, 1)" stroke-width="0.1"    d="M14.875 22C11.725 20.5 7 18.25 7 18.25L7 11.6875L14.875 14.5M14.875 22C14.875 17.5 14.875 14.5 14.875 14.5M14.875 22C17.325 20.5 21 18.25 21 18.25L21 11.6875L14.875 14.5">
</path>
</g>
<path     fill="url(#linear_fill_0_16_0_0)"  d="M9.15714 18.7922L9.18788 18.7312C9.28209 18.7411 9.32397 18.7273 9.32397 18.7273C9.36184 18.7108 9.39642 18.65 9.39642 18.65C9.44109 18.5896 9.54999 18.3858 9.54999 18.3858C9.69042 18.1207 9.77333 18.0127 9.77333 18.0127C9.89808 17.8483 10.024 17.7924 10.024 17.7924C10.1524 17.7366 10.2629 17.773 10.2629 17.773C10.329 17.796 10.3598 17.8579 10.3598 17.8579C10.3925 17.915 10.3789 17.9568 10.3789 17.9568C10.3714 17.9816 10.3538 17.9993 10.3538 17.9993C10.3347 18.012 10.3149 18.0062 10.3149 18.0062C10.2898 17.9975 10.2624 17.9367 10.2624 17.9367C10.2353 17.8794 10.2126 17.858 10.2126 17.858C10.1945 17.8368 10.1821 17.8372 10.1821 17.8372C10.1578 17.8287 10.1238 17.8271 10.1238 17.8271C10.0843 17.8385 10.0292 17.8967 10.0292 17.8967C9.97269 17.9473 9.8954 18.0551 9.8954 18.0551C9.84379 18.1307 9.74463 18.31 9.74463 18.31C9.58833 18.597 9.5213 18.6832 9.5213 18.6832C9.47596 18.7473 9.42933 18.7844 9.42933 18.7844C9.55912 18.793 9.6264 18.8221 9.6264 18.8221C9.6708 18.8376 9.71237 18.8622 9.71237 18.8622C9.75006 18.8753 9.83712 18.9363 9.83712 18.9363C9.91118 18.9883 9.93967 19.0027 9.93967 19.0027C9.9715 19.0138 10.0036 18.9942 10.0036 18.9942C10.0331 18.9776 10.0426 18.9463 10.0426 18.9463C10.0485 18.9266 10.0483 18.8868 10.0483 18.8868C10.0583 18.8538 10.0513 18.8366 10.0513 18.8366C10.0597 18.8087 10.0764 18.7941 10.0764 18.7941C10.0946 18.7828 10.1153 18.7871 10.1153 18.7871C10.1404 18.7959 10.1513 18.8304 10.1513 18.8304C10.1606 18.8639 10.151 18.9122 10.151 18.9122C10.1238 19.0021 10.0367 19.0467 10.0367 19.0467C9.95673 19.0908 9.85064 19.0537 9.85064 19.0537C9.79954 19.036 9.73138 19.002 9.73138 19.002C9.46904 18.8778 9.38469 18.8508 9.38469 18.8508C9.26155 18.808 9.15714 18.7922 9.15714 18.7922Z">
</path>
<path     fill="url(#linear_fill_0_16_1_0)"  d="M10.9816 17.9511C11.0076 17.9601 11.0093 17.9812 11.0093 17.9812C11.0196 18.0082 11.0147 18.0445 11.0147 18.0445C11.0009 18.09 10.9672 18.1202 10.9672 18.1202C10.9312 18.1459 10.8894 18.1342 10.8894 18.1342C10.8643 18.1254 10.8645 18.0948 10.8645 18.0948C10.8543 18.0673 10.8592 18.0315 10.8592 18.0315C10.8732 17.985 10.9038 17.965 10.9038 17.965C10.938 17.9409 10.9816 17.9511 10.9816 17.9511ZM10.4411 18.5213L10.419 18.4727C10.5372 18.3882 10.611 18.3652 10.611 18.3652C10.6946 18.3412 10.7499 18.352 10.7499 18.352C10.7767 18.3613 10.7886 18.386 10.7886 18.386C10.7985 18.4054 10.7885 18.4269 10.7885 18.4269C10.7794 18.4569 10.6545 18.6672 10.6545 18.6672C10.4547 19.003 10.4338 19.072 10.4338 19.072C10.4294 19.0864 10.4254 19.0998 10.4254 19.0998C10.4224 19.1096 10.4448 19.1168 10.4448 19.1168C10.4716 19.1261 10.6172 19.0333 10.6172 19.0333L10.6393 19.0819C10.4842 19.1753 10.4195 19.2002 10.4195 19.2002C10.3555 19.219 10.3195 19.2064 10.3195 19.2064C10.2902 19.1962 10.2835 19.1632 10.2835 19.1632C10.2733 19.1345 10.281 19.0906 10.281 19.0906C10.3201 18.9615 10.605 18.5066 10.605 18.5066C10.6122 18.4828 10.6162 18.4695 10.6162 18.4695C10.6224 18.4488 10.6107 18.4471 10.6107 18.4471C10.594 18.4413 10.5635 18.4409 10.5635 18.4409C10.5372 18.45 10.4411 18.5213 10.4411 18.5213Z">
</path>
<path     fill="url(#linear_fill_0_16_2_0)"  d="M11.2686 18.5425C11.3432 18.5684 11.3684 18.6182 11.3684 18.6182C11.3982 18.6679 11.3875 18.717 11.3875 18.717C11.3791 18.7449 11.3513 18.7557 11.3513 18.7557C11.3278 18.7704 11.3013 18.7588 11.3013 18.7588C11.2854 18.7532 11.2819 18.7418 11.2819 18.7418C11.2702 18.7377 11.2626 18.6839 11.2626 18.6839C11.2419 18.6025 11.2046 18.592 11.2046 18.592C11.1702 18.5801 11.1268 18.6059 11.1268 18.6059C11.0905 18.6293 11.0821 18.6724 11.0821 18.6724C11.0693 18.7147 11.068 18.7597 11.068 18.7597C11.0727 18.8052 11.1175 18.9203 11.1175 18.9203C11.1736 19.0745 11.1361 19.1829 11.1361 19.1829C11.103 19.2923 10.9995 19.3505 10.9995 19.3505C10.8993 19.4064 10.7856 19.3684 10.7856 19.3684C10.6859 19.3337 10.6582 19.2626 10.6582 19.2626C10.6247 19.1957 10.6392 19.1229 10.6392 19.1229C10.6501 19.0867 10.681 19.0657 10.681 19.0657C10.7066 19.0483 10.731 19.0626 10.731 19.0626C10.7545 19.0707 10.7698 19.0965 10.7698 19.0965C10.7807 19.1215 10.7668 19.1467 10.7668 19.1467C10.7637 19.1571 10.7584 19.1745 10.7584 19.1745C10.7544 19.188 10.7528 19.1931 10.7528 19.1931C10.7425 19.2272 10.7582 19.2564 10.7582 19.2564C10.7736 19.288 10.8052 19.3035 10.8052 19.3035C10.8505 19.3192 10.8996 19.3158 10.8996 19.3158C10.9398 19.3086 10.9719 19.2795 10.9719 19.2795C11.0029 19.2474 11.0083 19.1999 11.0083 19.1999C11.0196 19.1627 11.0196 19.1219 11.0196 19.1219C11.0129 19.0785 10.9673 18.9706 10.9673 18.9706C10.9165 18.8205 10.9487 18.708 10.9487 18.708C10.9794 18.6068 11.0686 18.555 11.0686 18.555C11.1578 18.5021 11.2686 18.5425 11.2686 18.5425Z">
</path>
<path     fill="url(#linear_fill_0_16_3_0)"  d="M11.7269 18.5277L11.8797 18.509L11.7372 18.7771L11.9037 18.835L11.8702 18.9052L11.6926 18.8435L11.5222 19.1634C11.4406 19.3074 11.4216 19.3743 11.4216 19.3743C11.4131 19.4021 11.4214 19.4152 11.4214 19.4152C11.4177 19.4276 11.4408 19.4322 11.4408 19.4322C11.4668 19.4412 11.5297 19.4221 11.5297 19.4221C11.6154 19.3959 11.6966 19.3571 11.6966 19.3571L11.7158 19.4151C11.4808 19.5217 11.4072 19.5434 11.4072 19.5434C11.3336 19.5601 11.2961 19.5458 11.2961 19.5458C11.2651 19.535 11.2601 19.5025 11.2601 19.5025C11.2505 19.4684 11.266 19.4021 11.266 19.4021C11.2885 19.3278 11.3694 19.182 11.3694 19.182L11.5816 18.805L11.4374 18.7549L11.482 18.6884L11.6152 18.7347L11.7269 18.5277Z">
</path>
<path     fill="url(#linear_fill_0_16_4_0)"  d="M12.5726 18.9752L12.6337 18.9759L12.4857 19.2216C12.4008 19.3645 12.3125 19.5507 12.3125 19.5507C12.2606 19.6548 12.2454 19.6913 12.2454 19.6913C12.2357 19.7233 12.2592 19.7268 12.2592 19.7268C12.2726 19.7315 12.3092 19.7237 12.3092 19.7237C12.3727 19.7035 12.4371 19.6657 12.4371 19.6657L12.4481 19.7105C12.3201 19.7847 12.2867 19.7979 12.2867 19.7979C12.2194 19.8247 12.1672 19.828 12.1672 19.828C12.131 19.8314 12.095 19.8234 12.095 19.8234C12.0733 19.8159 12.0646 19.8026 12.0646 19.8026C12.0683 19.7902 12.0647 19.7617 12.0647 19.7617C12.0694 19.7462 12.0898 19.7192 12.0898 19.7192L12.1652 19.5917C12.0609 19.673 11.9426 19.7192 11.9426 19.7192C11.8671 19.7455 11.8176 19.727 11.8176 19.727C11.769 19.7101 11.754 19.6537 11.754 19.6537C11.736 19.5847 11.7656 19.4938 11.7656 19.4938C11.7987 19.3843 11.8829 19.2682 11.8829 19.2682C11.9709 19.1504 12.0779 19.0697 12.0779 19.0697C12.1907 18.9878 12.2949 18.9607 12.2949 18.9607C12.3746 18.945 12.4837 18.9853 12.4837 18.9853C12.5105 18.9946 12.5392 19.0046 12.5392 19.0046L12.5726 18.9752ZM12.4139 19.0942C12.3721 19.0671 12.3501 19.0618 12.3501 19.0618C12.2747 19.0356 12.2029 19.0619 12.2029 19.0619C12.1313 19.0935 12.0358 19.2087 12.0358 19.2087C11.9475 19.3247 11.9101 19.4621 11.9101 19.4621C11.8888 19.5323 11.9014 19.5717 11.9014 19.5717C11.9113 19.6094 11.9374 19.615 11.9374 19.615C11.9952 19.6351 12.0819 19.5832 12.0819 19.5832C12.1714 19.5293 12.2491 19.3955 12.2491 19.3955L12.4139 19.0942Z">
</path>
<path     fill="url(#linear_fill_0_16_5_0)"  d="M12.6028 19.9692L12.4808 19.9267L12.6204 19.6679C12.725 19.4783 12.816 19.3056 12.816 19.3056C12.8297 19.2602 12.8439 19.2539 12.8439 19.2539C12.8514 19.2291 12.8301 19.2184 12.8301 19.2184C12.8175 19.214 12.7912 19.2253 12.7912 19.2253C12.7588 19.2375 12.6577 19.3018 12.6577 19.3018L12.6467 19.2571C12.7593 19.1786 12.8526 19.1442 12.8526 19.1442C12.9487 19.1188 12.9887 19.1403 12.9887 19.1403C13.0037 19.1455 13.008 19.1573 13.008 19.1573L13.0135 19.1797C13.0095 19.1931 12.98 19.25 12.98 19.25L12.8906 19.4238C13.0249 19.289 13.1662 19.202 13.1662 19.202C13.2342 19.164 13.2718 19.1772 13.2718 19.1772C13.2969 19.1859 13.3078 19.2204 13.3078 19.2204C13.3184 19.2464 13.3049 19.2707 13.3049 19.2707C13.2964 19.2985 13.2797 19.3131 13.2797 19.3131C13.2575 19.3271 13.1769 19.3286 13.1769 19.3286C13.1071 19.3329 13.0602 19.3495 13.0602 19.3495C13.0103 19.3722 12.9489 19.4338 12.9489 19.4338C12.8799 19.492 12.843 19.5404 12.843 19.5404C12.8078 19.5893 12.7089 19.7807 12.7089 19.7807L12.6028 19.9692Z">
</path>
<path     fill="url(#linear_fill_0_16_6_0)"  d="M13.1572 19.4345L13.1518 19.3711L13.2324 19.3479C13.346 19.3029 13.3853 19.2884 13.3853 19.2884C13.41 19.2833 13.4325 19.2945 13.4325 19.2945C13.4501 19.3006 13.4602 19.3246 13.4602 19.3246C13.4992 19.4649 13.4869 19.6822 13.4869 19.6822C13.4782 19.8944 13.4162 20.0777 13.4162 20.0777C13.409 20.1014 13.3966 20.1426 13.3966 20.1426C13.6354 19.8706 13.6952 19.6829 13.6952 19.6829C13.707 19.6436 13.7149 19.5771 13.7149 19.5771C13.7217 19.4995 13.7236 19.4674 13.7236 19.4674C13.7327 19.4374 13.7598 19.4288 13.7598 19.4288C13.7813 19.4145 13.8015 19.4125 13.8015 19.4125C13.8309 19.4227 13.8375 19.4558 13.8375 19.4558C13.8471 19.4899 13.8345 19.5469 13.8345 19.5469C13.7941 19.6801 13.689 19.8652 13.689 19.8652C13.5794 20.0468 13.4046 20.2376 13.4046 20.2376C13.2294 20.4295 13.101 20.5111 13.101 20.5111C12.9799 20.5917 12.8869 20.6108 12.8869 20.6108C12.7907 20.6305 12.7175 20.6032 12.7175 20.6032C12.6622 20.584 12.6371 20.5445 12.6371 20.5445C12.6167 20.5095 12.6318 20.4812 12.6318 20.4812C12.6412 20.4502 12.6708 20.4333 12.6708 20.4333C12.6993 20.4187 12.7319 20.434 12.7319 20.434C12.7604 20.4439 12.8068 20.4703 12.8068 20.4703C12.8552 20.5031 12.8788 20.5158 12.8788 20.5158C12.9299 20.5336 12.9956 20.4949 12.9956 20.4949C13.0953 20.4497 13.182 20.3651 13.182 20.3651C13.258 20.2808 13.2882 20.1766 13.2882 20.1766C13.3316 20.033 13.3587 19.8221 13.3587 19.8221C13.3857 19.6089 13.3514 19.4815 13.3514 19.4815C13.337 19.416 13.3017 19.4027 13.3017 19.4027C13.2606 19.3885 13.1572 19.4345 13.1572 19.4345Z">
</path>
</g>
<defs>
<clipPath id="clip-path-0_1">
<path d="M0 28L28 28L28 0L0 0L0 28Z" fill="white"/>
</clipPath>
<linearGradient id="linear_fill_1_3" x1="7.875" y1="7" x2="14.637054443359375" y2="13.332294464111328" gradientUnits="userSpaceOnUse">
<stop offset="0" stop-color="#5A9FD4"  />
<stop offset="1" stop-color="#306998"  />
</linearGradient>
<linearGradient id="linear_fill_1_4" x1="15.531234741210938" y1="18.380264282226562" x2="13.091293334960938" y2="14.702518463134766" gradientUnits="userSpaceOnUse">
<stop offset="0" stop-color="#FFD43B"  />
<stop offset="1" stop-color="#FFE873"  />
</linearGradient>
<filter id="filter_0_10" x="2.9499969482421875" y="9.609516143798828" width="22.100006103515625" height="18.447284698486328" filterUnits="userSpaceOnUse" color-interpolation-filters="sRGB">
<feFlood flood-opacity="0" result="feFloodId_0_10"/>
<feColorMatrix in="SourceAlpha" type="matrix" values="0 0 0 0 0 0 0 0 0 0 0 0 0 0 0 0 0 0 127 0" result="hardAlpha_0_10"/>
<feOffset dx="0" dy="2"/>
<feGaussianBlur stdDeviation="2"/>
<feComposite in2="hardAlpha_0_10" operator="out"/>
<feColorMatrix type="matrix" values="0 0 0 0 0 0 0 0 0 0 0 0 0 0 0 0 0 0 0.25 0"/>
<feBlend mode="normal" in2="feFloodId_0_10" result="dropShadow_1_0_10"/>
<feBlend mode="normal" in="SourceGraphic" in2="dropShadow_1_0_10" result="shape_0_10"/>
</filter>
<linearGradient id="linear_fill_0_16_0_0" x1="9.280609130859375" y1="18.384380340576172" x2="13.719406127929688" y2="19.926929473876953" gradientUnits="userSpaceOnUse">
<stop offset="0" stop-color="#FF1D25"  />
<stop offset="0.4722" stop-color="#FC1C24"  />
<stop offset="0.5139" stop-color="#FCC72B"  />
<stop offset="1" stop-color="#FFC90F"  />
<stop offset="1.01" stop-color="#000000" stop-opacity="0" />
</linearGradient>
<linearGradient id="linear_fill_0_16_1_0" x1="9.280609130859375" y1="18.384380340576172" x2="13.719406127929688" y2="19.926929473876953" gradientUnits="userSpaceOnUse">
<stop offset="0" stop-color="#FF1D25"  />
<stop offset="0.4722" stop-color="#FC1C24"  />
<stop offset="0.5139" stop-color="#FCC72B"  />
<stop offset="1" stop-color="#FFC90F"  />
<stop offset="1.01" stop-color="#000000" stop-opacity="0" />
</linearGradient>
<linearGradient id="linear_fill_0_16_2_0" x1="9.280609130859375" y1="18.384380340576172" x2="13.719406127929688" y2="19.926929473876953" gradientUnits="userSpaceOnUse">
<stop offset="0" stop-color="#FF1D25"  />
<stop offset="0.4722" stop-color="#FC1C24"  />
<stop offset="0.5139" stop-color="#FCC72B"  />
<stop offset="1" stop-color="#FFC90F"  />
<stop offset="1.01" stop-color="#000000" stop-opacity="0" />
</linearGradient>
<linearGradient id="linear_fill_0_16_3_0" x1="9.280609130859375" y1="18.384380340576172" x2="13.719406127929688" y2="19.926929473876953" gradientUnits="userSpaceOnUse">
<stop offset="0" stop-color="#FF1D25"  />
<stop offset="0.4722" stop-color="#FC1C24"  />
<stop offset="0.5139" stop-color="#FCC72B"  />
<stop offset="1" stop-color="#FFC90F"  />
<stop offset="1.01" stop-color="#000000" stop-opacity="0" />
</linearGradient>
<linearGradient id="linear_fill_0_16_4_0" x1="9.280609130859375" y1="18.384380340576172" x2="13.719406127929688" y2="19.926929473876953" gradientUnits="userSpaceOnUse">
<stop offset="0" stop-color="#FF1D25"  />
<stop offset="0.4722" stop-color="#FC1C24"  />
<stop offset="0.5139" stop-color="#FCC72B"  />
<stop offset="1" stop-color="#FFC90F"  />
<stop offset="1.01" stop-color="#000000" stop-opacity="0" />
</linearGradient>
<linearGradient id="linear_fill_0_16_5_0" x1="9.280609130859375" y1="18.384380340576172" x2="13.719406127929688" y2="19.926929473876953" gradientUnits="userSpaceOnUse">
<stop offset="0" stop-color="#FF1D25"  />
<stop offset="0.4722" stop-color="#FC1C24"  />
<stop offset="0.5139" stop-color="#FCC72B"  />
<stop offset="1" stop-color="#FFC90F"  />
<stop offset="1.01" stop-color="#000000" stop-opacity="0" />
</linearGradient>
<linearGradient id="linear_fill_0_16_6_0" x1="9.280609130859375" y1="18.384380340576172" x2="13.719406127929688" y2="19.926929473876953" gradientUnits="userSpaceOnUse">
<stop offset="0" stop-color="#FF1D25"  />
<stop offset="0.4722" stop-color="#FC1C24"  />
<stop offset="0.5139" stop-color="#FCC72B"  />
<stop offset="1" stop-color="#FFC90F"  />
<stop offset="1.01" stop-color="#000000" stop-opacity="0" />
</linearGradient>
</defs>
</svg>
